<svg xmlns="http://www.w3.org/2000/svg" viewBox="0 0 31 31"><path d="M1 1h7v7h-7zM13 1h1v1h-1zM16 1h5v1h1v2h-1v3h-1v2h1v-2h1v3h-4v1h1v1h1v1h-1v1h-1v-2h-1v-3h1v-1h1v-1h-1v1h-1v-1h-1v1h-1v-2h1v-1h1v1h1v-1h1v-1h1v-1h-1v-1h-2v1h1v1h-3v-1h1zM23 1h7v7h-7zM2 2v5h5v-5zM9 2h1v1h-1zM11 2h1v1h-1zM14 2h1v1h-1zM24 2v5h5v-5zM3 3h3v3h-3zM10 3h1v1h-1zM12 3h1v2h-2v-1h1zM25 3h3v3h-3zM9 5h1v1h-1zM13 5h1v1h-1zM10 6h1v1h-1zM12 6h1v1h-1zM9 7h1v1h-1zM11 7h1v1h1v1h-1v1h-2v-1h1zM13 7h1v1h-1zM14 8h1v1h1v5h-4v-1h2v-1h1v-1h-1zM16 8h1v1h-1zM1 9h1v1h1v2h-2zM3 9h1v1h-1zM5 9h1v1h1v1h2v3h-2v-1h1v-1h-1v1h-1v-1h-2v-1h1zM7 9h1v1h-1zM25 9h1v1h-1zM28 9h1v1h-1zM9 10h1v1h-1zM22 10h2v1h-1v2h1v1h1v2h-1v-1h-3v-1h-1v-1h1v-2h1zM26 10h1v1h-1zM29 10h1v2h-1v1h1v3h-1v1h1v3h-1v1h-1v-2h1v-1h-1v-3h1v-1h-1v-2h-1v-1h2zM10 11h3v1h-3zM3 12h1v1h-1zM25 12h1v1h-1zM1 13h2v1h-1v1h-1zM5 13h1v1h-1zM10 13h1v1h-1zM26 13h1v5h1v1h-2zM9 14h1v1h1v1h1v1h-1v1h-1v-1h-1v-1h-3v-1h3zM17 14h1v2h1v-1h1v1h1v1h4v1h-1v1h-1v1h1v1h2v2h1v2h-1v2h1v1h-1v1h1v1h-3v-1h1v-1h-1v-1h1v-1h-4v-2h-1v-2h1v-1h-1v-1h1v-2h-1v-1h-1v1h-1v-1h-2v1h-1v-1h-1v1h-1v-2h1v-1h1v1h2zM2 15h1v2h3v2h-1v-1h-2v1h-1v-1h-1v-1h1zM4 15h1v1h-1zM12 15h1v1h-1zM7 17h2v1h-2zM17 18h1v1h-1zM1 19h1v1h-1zM6 19h6v3h-1v-1h-1v-1h-1v1h-1v-1h-1v1h-2v1h-2v-1h1v-1h2zM13 19h2v1h-2zM18 19h1v2h1v1h-2v1h-1v-1h-1v-2h1v1h1zM24 19h1v1h-1zM2 20h1v1h-1zM26 20h1v1h-1zM1 21h1v1h-1zM7 21h1v1h-1zM13 21h1v1h-1zM9 22h2v1h-2zM12 22h1v2h-1zM14 22h1v1h-1zM22 22v3h3v-3zM27 22h3v2h-1v1h-1v-2h-1zM1 23h7v7h-7zM15 23h1v2h2v-2h1v1h1v1h-1v2h-1v1h1v-1h3v1h2v1h-1v1h-3v-1h-1v1h-3v-1h1v-3h-1v2h-2v-1h-2v-1h3v-1h-1v-1h1zM23 23h1v1h-1zM2 24v5h5v-5zM10 24h2v2h-3v-1h1zM3 25h3v3h-3zM27 26h3v2h-1v-1h-2zM9 27h1v1h-1zM11 27h1v2h2v1h-5v-1h1v-1h1zM28 28h1v1h1v1h-2z"/></svg>